<?xml version="1.0" encoding="UTF-8"?>
<svg id="Layer_1" xmlns="http://www.w3.org/2000/svg" version="1.1" viewBox="0 0 512 512">
  <!-- Generator: Adobe Illustrator 30.0.0, SVG Export Plug-In . SVG Version: 2.1.1 Build 123)  -->
  <defs>
    <style>
      .st0 {
        opacity: .65;
      }

      .st0, .st1, .st2 {
        isolation: isolate;
      }

      .st1 {
        opacity: .78;
      }

      .st2 {
        opacity: .92;
      }

      .st3 {
        fill: #00e5a8;
      }

      .st4 {
        fill: #fff;
      }
    </style>
  </defs>
  <rect width="512" height="512"/>
  <path class="st4" d="M91.28,140.69h0c15.47,0,28,12.54,28,28v207.56c0,15.47-12.54,28-28,28h0c-15.47,0-28-12.54-28-28v-207.56c0-15.47,12.54-28,28-28Z"/>
  <g class="st1">
    <path class="st4" d="M193.41,193.4h0c15.47,0,28,12.54,28,28v154.85c0,15.47-12.54,28-28,28h0c-15.47,0-28-12.54-28-28v-154.85c0-15.47,12.54-28,28-28Z"/>
  </g>
  <g class="st2">
    <path class="st4" d="M295.54,107.75h0c15.47,0,28,12.54,28,28v240.5c0,15.47-12.54,28-28,28h0c-15.47,0-28-12.54-28-28v-240.5c0-15.47,12.54-28,28-28Z"/>
  </g>
  <g class="st0">
    <path class="st4" d="M397.66,170.33h0c15.47,0,28,12.54,28,28v177.9c0,15.47-12.54,28-28,28h0c-15.47,0-28-12.54-28-28v-177.9c0-15.47,12.54-28,28-28Z"/>
  </g>
  <path class="st3" d="M419.08,134.1c-16.38,0-29.65,13.28-29.65,29.65,0,1.85.17,3.66.5,5.41l-88.64,91.25-78.94-46.77c-5.12-3.03-11.56-2.7-16.34.85l-102.13,75.77c-6.55,4.86-7.93,14.11-3.07,20.68,2.89,3.9,7.36,5.97,11.88,5.97,3.05,0,6.15-.95,8.79-2.91l94.25-69.92,80.5,47.71c5.87,3.49,13.37,2.49,18.13-2.41l94.85-97.65c3.08,1.08,6.4,1.69,9.85,1.69,16.38,0,29.65-13.28,29.65-29.65s-13.28-29.65-29.65-29.65h.01Z"/>
</svg>